<svg width="17" height="29" viewBox="0 0 17 29" fill="none" xmlns="http://www.w3.org/2000/svg">
<path fill-rule="evenodd" clip-rule="evenodd" d="M6.5 6.36486C6.5 3.96704 8.50172 2 11 2C13.4983 2 15.5 3.96704 15.5 6.36486C15.5 7.43306 15.1049 8.41206 14.4456 9.17245C14.2647 9.38109 14.2872 9.69687 14.4958 9.87777C14.7045 10.0587 15.0203 10.0362 15.2012 9.82755C16.0102 8.89453 16.5 7.68565 16.5 6.36486C16.5 3.38911 14.0246 1 11 1C7.97544 1 5.5 3.38911 5.5 6.36486C5.5 7.68565 5.98984 8.89453 6.79883 9.82755C6.97973 10.0362 7.29551 10.0587 7.50415 9.87777C7.71279 9.69687 7.73527 9.38109 7.55437 9.17245C6.89506 8.41206 6.5 7.43306 6.5 6.36486ZM13.6667 6.24967C13.6667 7.55154 12.7338 8.63551 11.5 8.86954L11.5 21.2497C11.5 23.735 9.48528 25.7497 7 25.7497L2.70711 25.7497L5.03553 28.0781C5.2308 28.2734 5.2308 28.5899 5.03554 28.7852C4.84027 28.9805 4.52369 28.9805 4.32843 28.7852L1.14645 25.6032C0.951184 25.408 0.951184 25.0914 1.14645 24.8961L4.32843 21.7141C4.52369 21.5189 4.84027 21.5189 5.03553 21.7141C5.23079 21.9094 5.23079 22.226 5.03553 22.4212L2.70711 24.7497L7 24.7497C8.93299 24.7497 10.5 23.1827 10.5 21.2497L10.5 8.86954C9.26624 8.63551 8.33333 7.55154 8.33333 6.24967C8.33333 4.77692 9.52724 3.58301 11 3.58301C12.4728 3.58301 13.6667 4.77692 13.6667 6.24967Z" fill="url(#paint0_linear_5860_2801)"/>
<defs>
<linearGradient id="paint0_linear_5860_2801" x1="11.3333" y1="13.2802" x2="6.9161" y2="20.6551" gradientUnits="userSpaceOnUse">
<stop offset="0.364699" stop-color="#03824D"/>
<stop offset="1" stop-color="#CCCCCC"/>
</linearGradient>
</defs>
</svg>
